HIERARCHY
ROOT hip
{
  OFFSET 33.1993 85.263 -57.2252
  CHANNELS 6 Xposition Yposition Zposition Zrotation Xrotation Yrotation
  JOINT abdomen
  {
    OFFSET 0 20.6881 -0.73152
    CHANNELS 3 Zrotation Xrotation Yrotation
    JOINT chest
    {
      OFFSET 0 11.7043 -0.48768
      CHANNELS 3 Zrotation Xrotation Yrotation
      JOINT neck
      {
        OFFSET 0 22.1894 -2.19456
        CHANNELS 3 Zrotation Xrotation Yrotation
        JOINT head
        {
          OFFSET -0.24384 7.07133 1.2192
          CHANNELS 3 Zrotation Xrotation Yrotation
          JOINT leftEye
          {
            OFFSET 4.14528 8.04674 8.04672
            CHANNELS 3 Zrotation Xrotation Yrotation
            End Site
            {
              OFFSET 1 0 0
            }
          }
          JOINT rightEye
          {
            OFFSET -3.6576 8.04674 8.04672
            CHANNELS 3 Zrotation Xrotation Yrotation
            End Site
            {
              OFFSET 1 0 0
            }
          }
        }
      }
      JOINT rCollar
      {
        OFFSET -2.68224 19.2634 -4.8768
        CHANNELS 3 Zrotation Xrotation Yrotation
        JOINT rShldr
        {
          OFFSET -8.77824 -1.95073 1.46304
          CHANNELS 3 Zrotation Xrotation Yrotation
          JOINT rForeArm
          {
            OFFSET -28.1742 -1.7115 0.48768
            CHANNELS 3 Zrotation Xrotation Yrotation
            JOINT rHand
            {
              OFFSET -22.5879 0.773209 7.07136
              CHANNELS 3 Zrotation Xrotation Yrotation
              JOINT rThumb1
              {
                OFFSET -1.2192 -0.487915 3.41376
                CHANNELS 3 Zrotation Xrotation Yrotation
                JOINT rThumb2
                {
                  OFFSET -3.37035 -0.52449 3.41376
                  CHANNELS 3 Zrotation Xrotation Yrotation
                  End Site
                  {
                    OFFSET -1.78271 -1.18214 1.43049
                  }
                }
              }
              JOINT rIndex1
              {
                OFFSET -7.75947 0.938293 5.60832
                CHANNELS 3 Zrotation Xrotation Yrotation
                JOINT rIndex2
                {
                  OFFSET -2.54057 -0.884171 1.56538
                  CHANNELS 3 Zrotation Xrotation Yrotation
                  End Site
                  {
                    OFFSET -1.62519 -0.234802 1.16502
                  }
                }
              }
              JOINT rMid1
              {
                OFFSET -8.24714 1.18213 3.41376
                CHANNELS 3 Zrotation Xrotation Yrotation
                JOINT rMid2
                {
                  OFFSET -3.10165 -0.590103 1.0647
                  CHANNELS 3 Zrotation Xrotation Yrotation
                  End Site
                  {
                    OFFSET -2.48547 -0.328903 0.83742
                  }
                }
              }
              JOINT rRing1
              {
                OFFSET -8.82822 0.546677 1.51678
                CHANNELS 3 Zrotation Xrotation Yrotation
                JOINT rRing2
                {
                  OFFSET -2.60934 -0.819778 -0.0198488
                  CHANNELS 3 Zrotation Xrotation Yrotation
                  End Site
                  {
                    OFFSET -2.33842 -0.294052 0.168128
                  }
                }
              }
              JOINT rPinky1
              {
                OFFSET -8.27202 -0.0477905 -0.4584
                CHANNELS 3 Zrotation Xrotation Yrotation
                JOINT rPinky2
                {
                  OFFSET -1.82734 -0.647385 -0.700984
                  CHANNELS 3 Zrotation Xrotation Yrotation
                  End Site
                  {
                    OFFSET -1.69225 -0.51767 -0.607171
                  }
                }
              }
            }
          }
        }
      }
      JOINT lCollar
      {
        OFFSET 2.68224 19.2634 -4.8768
        CHANNELS 3 Zrotation Xrotation Yrotation
        JOINT lShldr
        {
          OFFSET 8.77824 -1.95073 1.46304
          CHANNELS 3 Zrotation Xrotation Yrotation
          JOINT lForeArm
          {
            OFFSET 28.1742 -1.7115 0.48768
            CHANNELS 3 Zrotation Xrotation Yrotation
            JOINT lHand
            {
              OFFSET 22.5879 0.773209 7.07136
              CHANNELS 3 Zrotation Xrotation Yrotation
              JOINT lThumb1
              {
                OFFSET 1.2192 -0.487915 3.41376
                CHANNELS 3 Zrotation Xrotation Yrotation
                JOINT lThumb2
                {
                  OFFSET 3.37035 -0.52449 3.41376
                  CHANNELS 3 Zrotation Xrotation Yrotation
                  End Site
                  {
                    OFFSET 1.78271 -1.18214 1.43049
                  }
                }
              }
              JOINT lIndex1
              {
                OFFSET 7.75947 0.938293 5.60832
                CHANNELS 3 Zrotation Xrotation Yrotation
                JOINT lIndex2
                {
                  OFFSET 2.54057 -0.884171 1.56538
                  CHANNELS 3 Zrotation Xrotation Yrotation
                  End Site
                  {
                    OFFSET 1.62519 -0.234802 1.16502
                  }
                }
              }
              JOINT lMid1
              {
                OFFSET 8.24714 1.18213 3.41376
                CHANNELS 3 Zrotation Xrotation Yrotation
                JOINT lMid2
                {
                  OFFSET 3.10165 -0.590103 1.0647
                  CHANNELS 3 Zrotation Xrotation Yrotation
                  End Site
                  {
                    OFFSET 2.48547 -0.328903 0.83742
                  }
                }
              }
              JOINT lRing1
              {
                OFFSET 8.82822 0.546677 1.51678
                CHANNELS 3 Zrotation Xrotation Yrotation
                JOINT lRing2
                {
                  OFFSET 2.60934 -0.819778 -0.0198488
                  CHANNELS 3 Zrotation Xrotation Yrotation
                  End Site
                  {
                    OFFSET 2.33842 -0.294052 0.168128
                  }
                }
              }
              JOINT lPinky1
              {
                OFFSET 8.27202 -0.0477905 -0.4584
                CHANNELS 3 Zrotation Xrotation Yrotation
                JOINT lPinky2
                {
                  OFFSET 1.82734 -0.647385 -0.700984
                  CHANNELS 3 Zrotation Xrotation Yrotation
                  End Site
                  {
                    OFFSET 1.69225 -0.51767 -0.607171
                  }
                }
              }
            }
          }
        }
      }
    }
  }
  JOINT rButtock
  {
    OFFSET -8.77824 4.35084 1.2192
    CHANNELS 3 Zrotation Xrotation Yrotation
    JOINT rThigh
    {
      OFFSET 0 -1.70687 -2.19456
      CHANNELS 3 Zrotation Xrotation Yrotation
      JOINT rShin
      {
        OFFSET 0 -36.8199 0.73152
        CHANNELS 3 Zrotation Xrotation Yrotation
        JOINT rFoot
        {
          OFFSET 0.73152 -45.1104 -5.12064
          CHANNELS 3 Zrotation Xrotation Yrotation
          End Site
          {
            OFFSET -1.1221 -3.69964 12.103
          }
        }
      }
    }
  }
  JOINT lButtock
  {
    OFFSET 8.77824 4.35084 1.2192
    CHANNELS 3 Zrotation Xrotation Yrotation
    JOINT lThigh
    {
      OFFSET 0 -1.70687 -2.19456
      CHANNELS 3 Zrotation Xrotation Yrotation
      JOINT lShin
      {
        OFFSET 0 -36.8199 0.73152
        CHANNELS 3 Zrotation Xrotation Yrotation
        JOINT lFoot
        {
          OFFSET -0.73152 -45.1104 -5.12064
          CHANNELS 3 Zrotation Xrotation Yrotation
          End Site
          {
            OFFSET 1.1221 -3.69964 12.103
          }
        }
      }
    }
  }
}
MOTION
Frames:	4
Frame Time:	0.00833333
48.3192 78.9239 -54.1087 -9.27323 1.29592 91.1742 -0.422321 28.7807 3.73512 1.34191 -7.31372 0.866343 -2.80562 -1.13188 15.7329 2.48285 -18.3071 32.9218 -0 0 0 -0 0 0 2.3643e-014 1.40823e-012 -1.11094e-014 42.3031 35.8433 41.764 -24.6981 -48.442 100.994 -0.918433 -26.142 -3.95523 -2.6911e-010 2.57501e-010 1.57852e-010 -4.63975e-010 4.35733e-010 2.59581e-010 -2.69102e-010 2.57499e-010 1.5785e-010 7.73091 5.47488 0.417314 -2.69108e-010 2.57493e-010 1.57854e-010 2.90554 0.965183 0.102902 -2.69104e-010 2.57502e-010 1.57851e-010 10.2786 0.731801 0.0259123 -2.69111e-010 2.57503e-010 1.57857e-010 2.22167 -0.733487 -0.20892 2.3551e-014 1.40868e-012 -1.16448e-014 -4.92697 32.8178 -94.1687 27.2974 -27.3872 -63.0907 0.00257731 -1.37454 0.19322 -3.06159e-011 -1.23471e-009 9.71912e-010 -5.30987e-011 -2.13607e-009 1.68107e-009 -3.06201e-011 -1.23472e-009 9.71934e-010 -7.73091 5.47488 -0.417314 -3.06119e-011 -1.23471e-009 9.71913e-010 -2.90554 0.965183 -0.102902 -3.06253e-011 -1.23472e-009 9.71927e-010 -10.2786 0.731801 -0.0259123 -3.06074e-011 -1.23471e-009 9.71906e-010 -2.22167 -0.733487 0.20892 -2.03217e-016 0 -3.88251e-019 -6.90045 -40.5115 -0.137143 -0.667928 51.1898 0.954836 -0.534432 -20.5567 -0.00792047 2.03217e-016 0 3.88251e-019 22.0823 -42.1853 13.6337 0.577401 50.4823 -1.10038 -0.613946 -8.68144 -4.20732 
48.4972 78.8786 -54.1098 -9.36628 1.1562 91.2805 -0.500586 28.8126 3.5106 1.48653 -7.41192 0.811885 -2.86108 -1.13823 15.877 2.45619 -18.1936 33.2164 -0 0 0 -0 0 0 1.82721e-014 1.49426e-012 -1.51822e-014 42.6678 34.4031 41.5707 -24.3825 -48.8908 102.052 -0.85643 -25.3263 -3.81339 -3.68484e-010 3.28328e-011 1.42731e-010 -6.36754e-010 4.8486e-011 2.34139e-010 -3.68477e-010 3.2833e-011 1.42724e-010 7.73091 5.47488 0.417314 -3.68483e-010 3.28278e-011 1.42729e-010 2.90554 0.965183 0.102902 -3.68477e-010 3.2833e-011 1.42728e-010 10.2786 0.731801 0.0259123 -3.68484e-010 3.2833e-011 1.42734e-010 2.22167 -0.733487 -0.20892 1.81806e-014 1.49545e-012 -1.55953e-014 -4.35466 31.044 -95.4763 27.2947 -27.3771 -63.0759 0.00216179 -1.158 0.162771 2.51161e-010 1.44781e-010 4.3595e-010 4.33685e-010 2.47188e-010 7.55101e-010 2.51157e-010 1.44773e-010 4.35965e-010 -7.73091 5.47488 -0.417314 2.51164e-010 1.44782e-010 4.35948e-010 -2.90554 0.965183 -0.102902 2.51154e-010 1.44775e-010 4.35958e-010 -10.2786 0.731801 -0.0259123 2.51168e-010 1.44784e-010 4.35941e-010 -2.22167 -0.733487 0.20892 -2.03217e-016 0 -3.88251e-019 -7.14979 -40.8713 -0.344921 -0.675606 51.3661 0.95694 -0.397389 -20.5597 0.284537 2.03217e-016 0 3.88251e-019 21.9087 -42.1285 13.6664 0.565196 50.1681 -1.09211 -0.543599 -8.95263 -3.85844 
48.6681 78.8361 -54.119 -9.45348 1.03875 91.3758 -0.571365 28.8565 3.29243 1.61174 -7.51669 0.758664 -2.90606 -1.14563 16.0096 2.42316 -18.0805 33.4839 -0 0 0 -0 0 0 1.3404e-014 1.32461e-012 -1.39996e-014 43.0555 32.9887 41.3719 -24.062 -49.3206 103.089 -0.801447 -24.5656 -3.68305 -4.43827e-010 -2.31139e-010 3.92474e-011 -7.66263e-010 -4.06143e-010 5.65853e-011 -4.4382e-010 -2.31136e-010 3.92354e-011 7.73091 5.47488 0.417314 -4.43826e-010 -2.31141e-010 3.92426e-011 2.90554 0.965183 0.102902 -4.43819e-010 -2.31139e-010 3.92433e-011 10.2786 0.731801 0.0259123 -4.43826e-010 -2.31141e-010 3.92484e-011 2.22167 -0.733487 -0.20892 1.3314e-014 1.32595e-012 -1.42826e-014 -3.87089 29.3343 -96.7163 27.2859 -27.3443 -63.0238 0.00148921 -0.911836 0.12816 4.74405e-010 1.20284e-009 1.25108e-011 8.19295e-010 2.07461e-009 2.36895e-011 4.74401e-010 1.20284e-009 1.25182e-011 -7.73091 5.47488 -0.417314 4.74407e-010 1.20284e-009 1.25063e-011 -2.90554 0.965183 -0.102902 4.74402e-010 1.20284e-009 1.25118e-011 -10.2786 0.731801 -0.0259123 4.74411e-010 1.20284e-009 1.24974e-011 -2.22167 -0.733487 0.20892 -2.03217e-016 0 -3.88251e-019 -7.40062 -41.2139 -0.567384 -0.683187 51.5401 0.959366 -0.273193 -20.5589 0.549258 2.03217e-016 0 3.88251e-019 21.7677 -42.0815 13.7496 0.553824 49.87 -1.0844 -0.485357 -9.20313 -3.57023 
48.8288 78.7966 -54.1301 -9.53469 0.923876 91.4793 -0.651111 28.8987 3.08995 1.71049 -7.61404 0.707298 -2.92036 -1.1432 16.1416 2.35344 -17.9821 33.7351 -0 0 0 -0 0 0 7.99448e-015 5.96944e-013 -5.66536e-015 43.4629 31.6452 41.1919 -23.7422 -49.7217 104.09 -0.757138 -23.9175 -3.5736 -4.62109e-010 -3.82296e-010 -1.22095e-010 -7.95425e-010 -6.66457e-010 -2.21443e-010 -4.62103e-010 -3.82292e-010 -1.22111e-010 7.73091 5.47488 0.417314 -4.62109e-010 -3.82296e-010 -1.22101e-010 2.90554 0.965183 0.102902 -4.62101e-010 -3.82296e-010 -1.221e-010 10.2786 0.731801 0.0259123 -4.62108e-010 -3.82298e-010 -1.22095e-010 2.22167 -0.733487 -0.20892 7.90882e-015 5.96944e-013 -5.86415e-015 -3.49088 27.7454 -97.8675 27.2687 -27.2802 -62.9194 0.000388592 -0.562868 0.0791085 5.26283e-010 1.22186e-009 -5.2988e-012 9.09018e-010 2.10621e-009 -6.55433e-012 5.26278e-010 1.22186e-009 -5.29562e-012 -7.73091 5.47488 -0.417314 5.26283e-010 1.22186e-009 -5.30517e-012 -2.90554 0.965183 -0.102902 5.26282e-010 1.22186e-009 -5.30278e-012 -10.2786 0.731801 -0.0259123 5.26287e-010 1.22186e-009 -5.31471e-012 -2.22167 -0.733487 0.20892 -2.03217e-016 0 -3.88251e-019 -7.62777 -41.5353 -0.759848 -0.690051 51.6953 0.961429 -0.160735 -20.553 0.789521 2.03217e-016 0 3.88251e-019 21.6461 -42.0019 13.8587 0.542256 49.5623 -1.07661 -0.4293 -9.4543 -3.29973 
